HIERARCHY
ROOT SpineBase
{
  OFFSET 0.000000 0.000000 0.000000
  CHANNELS 6 Xposition Yposition Zposition Zrotation Xrotation Yrotation
  JOINT SpineMid
  {
    OFFSET -0.000000 37.013243 0.000000
    CHANNELS 3 Zrotation Xrotation Yrotation
    JOINT SpineShoulder
    {
      OFFSET 0.021581 27.470960 -0.977642
      CHANNELS 3 Zrotation Xrotation Yrotation
      JOINT Neck
      {
        OFFSET 0.025658 9.083088 -0.720719
        CHANNELS 3 Zrotation Xrotation Yrotation
        JOINT Head
        {
          OFFSET 0.514829 14.398614 3.066461
          CHANNELS 3 Zrotation Xrotation Yrotation
          End Site
          {
            OFFSET 0 0 0
          }
        }
      }
      JOINT ShoulderLeft
      {
        OFFSET -15.033368 -4.693709 -7.733135
        CHANNELS 3 Zrotation Xrotation Yrotation
        JOINT ElbowLeft
        {
          OFFSET -1.545831 -33.793786 -6.911349
          CHANNELS 3 Zrotation Xrotation Yrotation
          JOINT WristLeft
          {
            OFFSET 3.210157 -25.335479 -7.254179
            CHANNELS 3 Zrotation Xrotation Yrotation
            JOINT HandLeft
            {
              OFFSET 0.799090 -3.860061 -13.633137
              CHANNELS 3 Zrotation Xrotation Yrotation
              JOINT HandTipLeft
              {
                OFFSET 1.517309 -4.477585 -4.275842
                CHANNELS 3 Zrotation Xrotation Yrotation
                End Site
                {
                  OFFSET 0 0 0
                }
              }
              JOINT ThumbLeft
              {
                OFFSET 4.500800 -4.939690 -6.880364
                CHANNELS 3 Zrotation Xrotation Yrotation
                End Site
                {
                  OFFSET 0 0 0
                }
              }
            }
          }
        }
      }
      JOINT ShoulderRight
      {
        OFFSET 18.029966 -3.432746 5.684074
        CHANNELS 3 Zrotation Xrotation Yrotation
        JOINT ElbowRight
        {
          OFFSET 11.789027 -33.657904 0.037891
          CHANNELS 3 Zrotation Xrotation Yrotation
          JOINT WristRight
          {
            OFFSET 7.107159 -24.775122 -6.055666
            CHANNELS 3 Zrotation Xrotation Yrotation
            JOINT HandRight
            {
              OFFSET -2.964496 -2.760922 1.564367
              CHANNELS 3 Zrotation Xrotation Yrotation
              JOINT HandTipRight
              {
                OFFSET -0.396975 -3.448010 -2.430309
                CHANNELS 3 Zrotation Xrotation Yrotation
                End Site
                {
                  OFFSET 0 0 0
                }
              }
              JOINT ThumbRight
              {
                OFFSET -2.944847 -3.922211 -4.350753
                CHANNELS 3 Zrotation Xrotation Yrotation
                End Site
                {
                  OFFSET 0 0 0
                }
              }
            }
          }
        }
      }
    }
  }
  JOINT HipLeft
  {
    OFFSET -7.259997 1.018204 -6.710140
    CHANNELS 3 Zrotation Xrotation Yrotation
    JOINT KneeLeft
    {
      OFFSET -10.848185 -11.800378 -30.620715
      CHANNELS 3 Zrotation Xrotation Yrotation
      JOINT AnkleLeft
      {
        OFFSET -17.639203 -35.918726 23.890189
        CHANNELS 3 Zrotation Xrotation Yrotation
        JOINT FootLeft
        {
          OFFSET 2.034016 -12.955474 -0.980077
          CHANNELS 3 Zrotation Xrotation Yrotation
          End Site
          {
            OFFSET 0 0 0
          }
        }
      }
    }
  }
  JOINT HipRight
  {
    OFFSET 7.840461 1.637184 -1.623815
    CHANNELS 3 Zrotation Xrotation Yrotation
    JOINT KneeRight
    {
      OFFSET -0.056262 -4.473297 -42.969465
      CHANNELS 3 Zrotation Xrotation Yrotation
      JOINT AnkleRight
      {
        OFFSET -11.768385 -42.425621 6.960580
        CHANNELS 3 Zrotation Xrotation Yrotation
        JOINT FootRight
        {
          OFFSET 5.394850 -2.928262 -14.890736
          CHANNELS 3 Zrotation Xrotation Yrotation
          End Site
          {
            OFFSET 0 0 0
          }
        }
      }
    }
  }
}
MOTION
Frames: 10
Frame Time: 0.033333
-48.684598 27.824203 306.960415 -9.765399 -4.723703 17.927181 -0.005310 -0.656258 -18.728321 0.130832 -0.152454 -0.413220 43.882477 -35.009064 3.977482 0.000000 0.000000 0.000000 11.493012 37.926454 -2.367083 -41.122561 -0.325313 5.146680 30.612380 -39.996329 11.359196 -4.182892 34.134415 7.551718 0.000000 0.000000 0.000000 0.000000 0.000000 0.000000 13.785946 -45.753615 -16.985089 -117.365270 33.779620 124.629075 60.338691 -20.054956 -45.211923 11.571350 -11.488264 45.334069 0.000000 0.000000 0.000000 0.000000 0.000000 0.000000 0.769312 36.863511 -3.210067 14.367620 -33.161228 -7.869593 105.762435 57.527870 -60.175765 0.000000 0.000000 0.000000 16.270058 11.496248 -28.872982 -30.497639 10.672430 -2.209202 5.472396 27.663615 67.747433 0.000000 0.000000 0.000000
-48.914450 27.158539 306.161491 -9.737090 -4.473323 16.800038 0.096477 -0.636649 -17.573257 0.030593 -0.410476 -0.432894 44.277958 -34.587171 3.834349 0.000000 0.000000 0.000000 7.422332 40.257458 -0.193269 -36.229199 -1.273080 4.577250 28.882598 -43.825070 10.733968 -3.583141 37.137989 8.003879 0.000000 0.000000 0.000000 0.000000 0.000000 0.000000 14.200705 -46.027057 -16.889296 -117.660544 33.488803 124.587242 60.058651 -20.213104 -45.083950 12.685052 -11.488461 45.429193 0.000000 0.000000 0.000000 0.000000 0.000000 0.000000 0.256423 36.947109 -2.562634 13.078646 -34.271258 -8.065925 108.007925 57.630921 -62.052602 0.000000 0.000000 0.000000 16.156970 12.173102 -27.633740 -37.198085 11.279612 -4.009718 16.355423 29.309088 61.029158 0.000000 0.000000 0.000000
-48.953239 26.949825 305.568305 -9.508162 -4.550733 18.160361 0.205154 -0.595848 -18.915109 0.097955 -0.443200 -0.417015 43.447529 -34.254294 3.642650 0.000000 0.000000 0.000000 3.541391 42.229543 1.769475 -30.902026 -2.788426 4.033312 25.836512 -47.259613 10.268082 -2.422586 39.260783 7.193054 0.000000 0.000000 0.000000 0.000000 0.000000 0.000000 14.126131 -45.990006 -16.761622 -117.324335 33.880139 123.926542 60.832749 -19.508110 -44.572584 10.772524 -12.517397 44.785115 0.000000 0.000000 0.000000 0.000000 0.000000 0.000000 1.814901 36.672001 -5.370000 11.223121 -35.266284 -8.240248 111.086229 57.813599 -65.181326 0.000000 0.000000 0.000000 16.135447 12.122654 -28.145349 -41.968487 11.480814 -5.754490 25.423460 31.101022 54.447476 0.000000 0.000000 0.000000
-48.748855 27.211050 305.031570 -9.030983 -4.589151 18.306122 0.242990 -0.687719 -19.031462 0.142037 -0.337505 -0.381848 41.811020 -34.165283 3.529980 0.000000 0.000000 0.000000 0.637232 43.638037 3.128480 -25.746583 -4.811730 3.540011 21.872903 -50.489050 9.675385 -1.887680 42.622925 7.415216 0.000000 0.000000 0.000000 0.000000 0.000000 0.000000 10.041347 -48.066543 -19.104029 -120.111170 34.727371 130.014498 59.673154 -20.235738 -45.071043 10.187043 -12.380742 45.029640 0.000000 0.000000 0.000000 0.000000 0.000000 0.000000 1.992257 35.646822 -6.183984 8.920889 -35.941440 -8.957110 114.126542 57.098671 -67.866896 0.000000 0.000000 0.000000 15.428631 12.292632 -26.929645 -44.321535 11.192350 -7.305964 34.004558 32.978051 44.388336 0.000000 0.000000 0.000000
-48.654021 27.461219 304.293136 -8.664300 -4.303521 18.788337 0.363788 -0.912715 -19.473102 0.188442 -0.228926 -0.347139 39.578229 -34.286975 3.557188 0.000000 0.000000 0.000000 -0.558891 45.277968 3.490488 -23.506157 -7.352379 2.690240 19.516350 -51.680163 10.144209 0.565883 43.344518 4.459169 0.000000 0.000000 0.000000 0.000000 0.000000 0.000000 10.545894 -47.082325 -18.115356 -118.890973 34.827726 127.794233 59.559075 -20.612826 -44.177223 8.549461 -12.447348 43.878666 0.000000 0.000000 0.000000 0.000000 0.000000 0.000000 3.139720 33.612457 -8.579750 6.359240 -36.283544 -8.666375 118.584307 56.760762 -72.557661 0.000000 0.000000 0.000000 14.842782 12.169173 -26.025673 -43.675675 9.414264 -8.459854 35.859559 35.099998 40.183189 0.000000 0.000000 0.000000
-48.674923 27.915519 303.569026 -8.510177 -3.786772 20.910961 0.490812 -1.068672 -21.545924 0.341149 -0.102015 -0.317385 37.477823 -34.804349 3.840826 0.000000 0.000000 0.000000 -0.688193 44.941390 3.222917 -23.445642 -7.483159 2.633437 19.124975 -51.871287 10.352596 1.388807 42.361153 2.996918 0.000000 0.000000 0.000000 0.000000 0.000000 0.000000 13.247962 -42.975082 -14.997752 -113.997040 35.499836 119.426919 62.644957 -19.565070 -42.055004 6.609332 -14.058898 42.550735 0.000000 0.000000 0.000000 0.000000 0.000000 0.000000 4.879650 31.660086 -12.155315 4.988960 -36.472461 -8.134481 120.228229 54.984359 -73.507617 0.000000 0.000000 0.000000 14.703500 11.487347 -26.494256 -39.729582 6.355961 -9.220775 34.533568 37.232723 35.644406 0.000000 0.000000 0.000000
-48.679526 28.561564 302.956883 -8.322349 -3.460259 23.040429 0.562591 -1.289160 -23.642755 0.521064 -0.063251 -0.291204 35.642930 -35.223041 3.955938 0.000000 0.000000 0.000000 1.117990 43.240738 1.790370 -26.589556 -5.407401 3.107083 20.861988 -50.860178 10.540481 1.071111 39.941684 2.545411 0.000000 0.000000 0.000000 0.000000 0.000000 0.000000 16.718444 -34.708939 -10.917455 -106.826210 34.917835 105.792706 68.910333 -18.185783 -37.879219 5.012032 -17.415808 40.960378 0.000000 0.000000 0.000000 0.000000 0.000000 0.000000 6.161480 30.044306 -15.125869 4.644832 -36.300449 -7.323850 120.565432 53.989676 -74.070012 0.000000 0.000000 0.000000 14.662091 9.748539 -29.993853 -42.715635 10.180820 -7.668068 33.931677 33.624911 41.953118 0.000000 0.000000 0.000000
-48.866976 29.177229 302.391800 -8.402729 -3.104122 24.613624 0.531528 -1.381990 -25.197546 0.557796 -0.023259 -0.288737 34.994256 -35.800062 4.216529 0.000000 0.000000 0.000000 2.102749 42.755391 1.217681 -27.610635 -5.001685 3.148768 21.121028 -51.092814 10.764252 1.582156 39.868771 1.896085 0.000000 0.000000 0.000000 0.000000 0.000000 0.000000 20.552960 -22.202597 -6.626646 -97.689461 33.683956 86.343213 75.154215 -16.348782 -33.336973 3.049454 -19.798525 37.849757 0.000000 0.000000 0.000000 0.000000 0.000000 0.000000 7.009823 29.066667 -16.985990 4.588801 -35.608915 -7.325833 119.943776 54.050486 -73.294384 0.000000 0.000000 0.000000 14.569965 8.254346 -32.049016 -44.950874 10.496530 -6.983303 36.174307 31.703450 41.936662 0.000000 0.000000 0.000000
-49.214434 29.516880 301.728772 -8.409119 -3.007937 22.558630 0.498297 -1.256947 -23.132479 0.598988 -0.097541 -0.296163 34.473490 -35.940975 4.245529 0.000000 0.000000 0.000000 3.729373 42.297075 0.335709 -29.427955 -4.548923 3.139255 21.837413 -50.726942 10.946195 1.400200 39.282018 1.875203 0.000000 0.000000 0.000000 0.000000 0.000000 0.000000 23.127828 -7.055830 -3.071975 -89.387186 30.484112 64.539806 82.767389 -14.617040 -25.247610 -2.097411 -20.572495 29.685748 0.000000 0.000000 0.000000 0.000000 0.000000 0.000000 5.983140 28.643433 -14.896012 3.998140 -35.170477 -7.518987 119.877483 53.653943 -72.633578 0.000000 0.000000 0.000000 14.187159 8.227639 -30.806347 -46.827911 10.501736 -6.360642 38.003293 29.334160 42.193233 0.000000 0.000000 0.000000
-49.653042 29.659689 301.093322 -8.494069 -2.997766 19.241778 0.345037 -1.079459 -19.820853 0.463683 -0.114407 -0.318636 34.714325 -36.008760 4.288464 0.000000 0.000000 0.000000 4.979519 42.040199 -0.082074 -30.205112 -4.727812 2.986663 22.099087 -49.569862 11.092903 0.850943 38.207498 2.085278 0.000000 0.000000 0.000000 0.000000 0.000000 0.000000 24.703202 7.056387 -0.336490 -83.562881 26.291852 44.641459 92.174857 -11.626226 -14.788199 -10.333712 -17.736996 16.461186 0.000000 0.000000 0.000000 0.000000 0.000000 0.000000 4.467529 28.390368 -11.470280 3.325647 -35.008523 -7.627378 120.219811 53.139680 -72.431980 0.000000 0.000000 0.000000 14.036883 8.720227 -29.374334 -48.528943 9.587066 -5.221623 39.306063 26.578801 42.809012 0.000000 0.000000 0.000000
